<svg xmlns="http://www.w3.org/2000/svg" viewBox="0 0 100 100"><path d="M89 54.5H75.9c-5.3 0-10.7 1.9-15.2 5.2l-2.3 1.8H40c-3.9 0-7 3.1-7 7 0 1.1.2 2.1.7 3-.9-.1-1.8-.3-2.5-.8l-14.1-8.1c-2.3-1.7-5.3-1.9-7.8-.7-2.7 1.4-4.3 4-4.3 6.9 0 2.4 1.1 4.5 2.9 6l.1.1 26.8 18c1.7 1.1 3.6 1.7 5.6 1.7h23.4c1.8 0 3.5-.5 5.1-1.4L81.2 86c.6 2.6 3 4.6 5.8 4.6h2c3.3 0 6-2.7 6-6v-24c0-3.4-2.7-6.1-6-6.1zm-8 26.9-14.1 8.3c-.9.5-2 .8-3 .8H40.4c-1.2 0-2.3-.4-3.3-1L10.3 71.6c-.8-.7-1.3-1.7-1.3-2.8 0-1.4.8-2.6 2-3.2 1.2-.6 2.7-.5 3.8.4.1 0 .2.1.2.2l14.2 8.1c1.5.9 3.2 1.3 5 1.3H65c1.1 0 2-.9 2-2 0-.5-.2-1-.5-1.4-.4-.4-.9-.6-1.5-.6H40c-1.7 0-3-1.4-3-3 0-1.7 1.3-3 3-3h19c.4 0 .9-.1 1.2-.4l2.9-2.2c3.8-2.9 8.3-4.4 12.9-4.4h5v22.8zm10 3.1c0 1.1-.9 2-2 2h-2c-1.1 0-2-.9-2-2v-26h4c1.1 0 2 .9 2 2v24zM27.3 50.6c3.6 3.3 8.2 4.9 12.7 4.9s9.1-1.6 12.7-4.9c7.2-6.5 8.3-17.3 2.7-25.2L41.6 6.3c-.4-.5-1-.8-1.6-.8s-1.2.3-1.6.8L24.6 25.4c-5.6 7.9-4.5 18.7 2.7 25.2zm.5-22.8L40 10.9l12.2 16.9c4.5 6.2 3.6 14.7-2.1 19.9-5.7 5.2-14.3 5.2-20.1 0-5.7-5.2-6.6-13.7-2.2-19.9zm4.2 7.7c0-1.1.9-2 2-2h4v-4c0-1.1.9-2 2-2s2 .9 2 2v4h4c1.1 0 2 .9 2 2s-.9 2-2 2h-4v4c0 1.1-.9 2-2 2s-2-.9-2-2v-4h-4c-1.1 0-2-.9-2-2z"/></svg>