<svg xmlns="http://www.w3.org/2000/svg" width="24" height="24" fill="none"><path fill="#000" fill-rule="evenodd" d="M3.259 10.215a4.75 4.75 0 1 1 7.534 3.849 6.725 6.725 0 0 0-2.784-.6c-.993 0-1.936.215-2.784.6a4.744 4.744 0 0 1-1.966-3.85zm4.75 3.849a6.75 6.75 0 0 0-6.75 6.75v.28c0 .621.434 1.157 1.042 1.285l1.751.368c2.61.55 5.304.55 7.913 0l1.752-.368a1.312 1.312 0 0 0 1.041-1.285v-.28a6.75 6.75 0 0 0-6.75-6.75zm5.85-7.213a.75.75 0 0 1 .22-.53l3.89-3.89a2.25 2.25 0 1 1 3.181 3.182l-3.889 3.89a.75.75 0 0 1-.53.22H14.61a.75.75 0 0 1-.75-.75V6.85zm1.5.31v1.061h1.061l3.67-3.67a.75.75 0 1 0-1.061-1.06l-3.67 3.67z" clip-rule="evenodd"/></svg>